<svg shape-rendering="crispEdges" viewBox="0 0 2900 2900" xmlns="http://www.w3.org/2000/svg">
<rect height="2900" style="fill:rgb(255,0,255);" width="2900"/>
<rect fill="rgba(0,0,0,255)" height="700" width="700" x="400" y="400"/>
<rect fill="rgba(255,255,255,255)" height="500" width="500" x="500" y="500"/>
<rect fill="rgba(0,0,0,255)" height="300" width="300" x="600" y="600"/>
<rect fill="rgba(0,0,0,255)" height="700" width="700" x="1800" y="400"/>
<rect fill="rgba(255,255,255,255)" height="500" width="500" x="1900" y="500"/>
<rect fill="rgba(0,0,0,255)" height="300" width="300" x="2000" y="600"/>
<rect fill="rgba(0,0,0,255)" height="700" width="700" x="400" y="1800"/>
<rect fill="rgba(255,255,255,255)" height="500" width="500" x="500" y="1900"/>
<rect fill="rgba(0,0,0,255)" height="300" width="300" x="600" y="2000"/>
<rect fill="rgba(0,0,0,255)" height="100" width="100" x="400" y="1200"/>
<rect fill="rgba(0,0,0,255)" height="100" width="100" x="400" y="1400"/>
<rect fill="rgba(0,0,0,255)" height="100" width="100" x="400" y="1500"/>
<rect fill="rgba(0,0,0,255)" height="100" width="100" x="400" y="1600"/>
<rect fill="rgba(0,0,0,255)" height="100" width="100" x="500" y="1300"/>
<rect fill="rgba(0,0,0,255)" height="100" width="100" x="600" y="1200"/>
<rect fill="rgba(0,0,0,255)" height="100" width="100" x="600" y="1300"/>
<rect fill="rgba(0,0,0,255)" height="100" width="100" x="600" y="1400"/>
<rect fill="rgba(0,0,0,255)" height="100" width="100" x="600" y="1600"/>
<rect fill="rgba(0,0,0,255)" height="100" width="100" x="700" y="1300"/>
<rect fill="rgba(0,0,0,255)" height="100" width="100" x="700" y="1400"/>
<rect fill="rgba(0,0,0,255)" height="100" width="100" x="700" y="1500"/>
<rect fill="rgba(0,0,0,255)" height="100" width="100" x="800" y="1200"/>
<rect fill="rgba(0,0,0,255)" height="100" width="100" x="800" y="1400"/>
<rect fill="rgba(0,0,0,255)" height="100" width="100" x="800" y="1600"/>
<rect fill="rgba(0,0,0,255)" height="100" width="100" x="900" y="1300"/>
<rect fill="rgba(0,0,0,255)" height="100" width="100" x="900" y="1500"/>
<rect fill="rgba(0,0,0,255)" height="100" width="100" x="1000" y="1200"/>
<rect fill="rgba(0,0,0,255)" height="100" width="100" x="1000" y="1400"/>
<rect fill="rgba(0,0,0,255)" height="100" width="100" x="1000" y="1600"/>
<rect fill="rgba(0,0,0,255)" height="100" width="100" x="1100" y="1200"/>
<rect fill="rgba(0,0,0,255)" height="100" width="100" x="1100" y="1600"/>
<rect fill="rgba(0,0,0,255)" height="100" width="100" x="1200" y="900"/>
<rect fill="rgba(0,0,0,255)" height="100" width="100" x="1200" y="1000"/>
<rect fill="rgba(0,0,0,255)" height="100" width="100" x="1200" y="1300"/>
<rect fill="rgba(0,0,0,255)" height="100" width="100" x="1200" y="1400"/>
<rect fill="rgba(0,0,0,255)" height="100" width="100" x="1200" y="1500"/>
<rect fill="rgba(0,0,0,255)" height="100" width="100" x="1200" y="1600"/>
<rect fill="rgba(0,0,0,255)" height="100" width="100" x="1200" y="1800"/>
<rect fill="rgba(0,0,0,255)" height="100" width="100" x="1200" y="2000"/>
<rect fill="rgba(0,0,0,255)" height="100" width="100" x="1200" y="2200"/>
<rect fill="rgba(0,0,0,255)" height="100" width="100" x="1200" y="2400"/>
<rect fill="rgba(0,0,0,255)" height="100" width="100" x="1300" y="400"/>
<rect fill="rgba(0,0,0,255)" height="100" width="100" x="1300" y="600"/>
<rect fill="rgba(0,0,0,255)" height="100" width="100" x="1300" y="700"/>
<rect fill="rgba(0,0,0,255)" height="100" width="100" x="1300" y="1100"/>
<rect fill="rgba(0,0,0,255)" height="100" width="100" x="1300" y="1200"/>
<rect fill="rgba(0,0,0,255)" height="100" width="100" x="1300" y="1300"/>
<rect fill="rgba(0,0,0,255)" height="100" width="100" x="1300" y="1400"/>
<rect fill="rgba(0,0,0,255)" height="100" width="100" x="1300" y="1900"/>
<rect fill="rgba(0,0,0,255)" height="100" width="100" x="1300" y="2000"/>
<rect fill="rgba(0,0,0,255)" height="100" width="100" x="1300" y="2100"/>
<rect fill="rgba(0,0,0,255)" height="100" width="100" x="1300" y="2200"/>
<rect fill="rgba(0,0,0,255)" height="100" width="100" x="1400" y="800"/>
<rect fill="rgba(0,0,0,255)" height="100" width="100" x="1400" y="1000"/>
<rect fill="rgba(0,0,0,255)" height="100" width="100" x="1400" y="1200"/>
<rect fill="rgba(0,0,0,255)" height="100" width="100" x="1400" y="1300"/>
<rect fill="rgba(0,0,0,255)" height="100" width="100" x="1400" y="1400"/>
<rect fill="rgba(0,0,0,255)" height="100" width="100" x="1400" y="1500"/>
<rect fill="rgba(0,0,0,255)" height="100" width="100" x="1400" y="1700"/>
<rect fill="rgba(0,0,0,255)" height="100" width="100" x="1400" y="1800"/>
<rect fill="rgba(0,0,0,255)" height="100" width="100" x="1400" y="1900"/>
<rect fill="rgba(0,0,0,255)" height="100" width="100" x="1400" y="2100"/>
<rect fill="rgba(0,0,0,255)" height="100" width="100" x="1400" y="2200"/>
<rect fill="rgba(0,0,0,255)" height="100" width="100" x="1400" y="2300"/>
<rect fill="rgba(0,0,0,255)" height="100" width="100" x="1500" y="400"/>
<rect fill="rgba(0,0,0,255)" height="100" width="100" x="1500" y="500"/>
<rect fill="rgba(0,0,0,255)" height="100" width="100" x="1500" y="600"/>
<rect fill="rgba(0,0,0,255)" height="100" width="100" x="1500" y="700"/>
<rect fill="rgba(0,0,0,255)" height="100" width="100" x="1500" y="900"/>
<rect fill="rgba(0,0,0,255)" height="100" width="100" x="1500" y="1200"/>
<rect fill="rgba(0,0,0,255)" height="100" width="100" x="1500" y="1300"/>
<rect fill="rgba(0,0,0,255)" height="100" width="100" x="1500" y="1400"/>
<rect fill="rgba(0,0,0,255)" height="100" width="100" x="1500" y="1600"/>
<rect fill="rgba(0,0,0,255)" height="100" width="100" x="1500" y="1900"/>
<rect fill="rgba(0,0,0,255)" height="100" width="100" x="1500" y="2100"/>
<rect fill="rgba(0,0,0,255)" height="100" width="100" x="1500" y="2200"/>
<rect fill="rgba(0,0,0,255)" height="100" width="100" x="1600" y="400"/>
<rect fill="rgba(0,0,0,255)" height="100" width="100" x="1600" y="500"/>
<rect fill="rgba(0,0,0,255)" height="100" width="100" x="1600" y="600"/>
<rect fill="rgba(0,0,0,255)" height="100" width="100" x="1600" y="700"/>
<rect fill="rgba(0,0,0,255)" height="100" width="100" x="1600" y="800"/>
<rect fill="rgba(0,0,0,255)" height="100" width="100" x="1600" y="900"/>
<rect fill="rgba(0,0,0,255)" height="100" width="100" x="1600" y="1000"/>
<rect fill="rgba(0,0,0,255)" height="100" width="100" x="1600" y="1200"/>
<rect fill="rgba(0,0,0,255)" height="100" width="100" x="1600" y="1900"/>
<rect fill="rgba(0,0,0,255)" height="100" width="100" x="1600" y="2000"/>
<rect fill="rgba(0,0,0,255)" height="100" width="100" x="1600" y="2100"/>
<rect fill="rgba(0,0,0,255)" height="100" width="100" x="1600" y="2300"/>
<rect fill="rgba(0,0,0,255)" height="100" width="100" x="1700" y="1200"/>
<rect fill="rgba(0,0,0,255)" height="100" width="100" x="1700" y="1300"/>
<rect fill="rgba(0,0,0,255)" height="100" width="100" x="1700" y="1400"/>
<rect fill="rgba(0,0,0,255)" height="100" width="100" x="1700" y="1600"/>
<rect fill="rgba(0,0,0,255)" height="100" width="100" x="1700" y="1700"/>
<rect fill="rgba(0,0,0,255)" height="100" width="100" x="1700" y="1800"/>
<rect fill="rgba(0,0,0,255)" height="100" width="100" x="1700" y="2100"/>
<rect fill="rgba(0,0,0,255)" height="100" width="100" x="1800" y="1400"/>
<rect fill="rgba(0,0,0,255)" height="100" width="100" x="1800" y="1700"/>
<rect fill="rgba(0,0,0,255)" height="100" width="100" x="1800" y="1800"/>
<rect fill="rgba(0,0,0,255)" height="100" width="100" x="1800" y="2000"/>
<rect fill="rgba(0,0,0,255)" height="100" width="100" x="1800" y="2200"/>
<rect fill="rgba(0,0,0,255)" height="100" width="100" x="1800" y="2300"/>
<rect fill="rgba(0,0,0,255)" height="100" width="100" x="1900" y="1200"/>
<rect fill="rgba(0,0,0,255)" height="100" width="100" x="1900" y="1400"/>
<rect fill="rgba(0,0,0,255)" height="100" width="100" x="1900" y="1500"/>
<rect fill="rgba(0,0,0,255)" height="100" width="100" x="1900" y="1600"/>
<rect fill="rgba(0,0,0,255)" height="100" width="100" x="1900" y="1700"/>
<rect fill="rgba(0,0,0,255)" height="100" width="100" x="1900" y="2100"/>
<rect fill="rgba(0,0,0,255)" height="100" width="100" x="1900" y="2200"/>
<rect fill="rgba(0,0,0,255)" height="100" width="100" x="1900" y="2300"/>
<rect fill="rgba(0,0,0,255)" height="100" width="100" x="1900" y="2400"/>
<rect fill="rgba(0,0,0,255)" height="100" width="100" x="2000" y="1300"/>
<rect fill="rgba(0,0,0,255)" height="100" width="100" x="2000" y="1600"/>
<rect fill="rgba(0,0,0,255)" height="100" width="100" x="2000" y="1700"/>
<rect fill="rgba(0,0,0,255)" height="100" width="100" x="2000" y="1800"/>
<rect fill="rgba(0,0,0,255)" height="100" width="100" x="2000" y="2000"/>
<rect fill="rgba(0,0,0,255)" height="100" width="100" x="2000" y="2300"/>
<rect fill="rgba(0,0,0,255)" height="100" width="100" x="2100" y="1300"/>
<rect fill="rgba(0,0,0,255)" height="100" width="100" x="2100" y="1400"/>
<rect fill="rgba(0,0,0,255)" height="100" width="100" x="2100" y="1700"/>
<rect fill="rgba(0,0,0,255)" height="100" width="100" x="2100" y="2100"/>
<rect fill="rgba(0,0,0,255)" height="100" width="100" x="2200" y="1400"/>
<rect fill="rgba(0,0,0,255)" height="100" width="100" x="2200" y="1800"/>
<rect fill="rgba(0,0,0,255)" height="100" width="100" x="2200" y="1900"/>
<rect fill="rgba(0,0,0,255)" height="100" width="100" x="2200" y="2000"/>
<rect fill="rgba(0,0,0,255)" height="100" width="100" x="2200" y="2100"/>
<rect fill="rgba(0,0,0,255)" height="100" width="100" x="2200" y="2200"/>
<rect fill="rgba(0,0,0,255)" height="100" width="100" x="2200" y="2300"/>
<rect fill="rgba(0,0,0,255)" height="100" width="100" x="2200" y="2400"/>
<rect fill="rgba(0,0,0,255)" height="100" width="100" x="2300" y="1400"/>
<rect fill="rgba(0,0,0,255)" height="100" width="100" x="2300" y="1500"/>
<rect fill="rgba(0,0,0,255)" height="100" width="100" x="2300" y="1600"/>
<rect fill="rgba(0,0,0,255)" height="100" width="100" x="2300" y="1700"/>
<rect fill="rgba(0,0,0,255)" height="100" width="100" x="2300" y="1900"/>
<rect fill="rgba(0,0,0,255)" height="100" width="100" x="2300" y="2000"/>
<rect fill="rgba(0,0,0,255)" height="100" width="100" x="2300" y="2100"/>
<rect fill="rgba(0,0,0,255)" height="100" width="100" x="2300" y="2200"/>
<rect fill="rgba(0,0,0,255)" height="100" width="100" x="2400" y="1500"/>
<rect fill="rgba(0,0,0,255)" height="100" width="100" x="2400" y="1600"/>
<rect fill="rgba(0,0,0,255)" height="100" width="100" x="2400" y="1700"/>
<rect fill="rgba(0,0,0,255)" height="100" width="100" x="2400" y="1800"/>
<rect fill="rgba(0,0,0,255)" height="100" width="100" x="2400" y="2000"/>
<rect fill="rgba(0,0,0,255)" height="100" width="100" x="2400" y="2300"/>
<rect fill="rgba(255,255,255,255)" height="700" width="700" x="1100" y="1100"/>
</svg>